# xmcd
#
# Track frame offsets:
#	150
#	19158
#	40039
#	76640
#	107142
#	124116
#	147528
#	168180
#	188348
#	205567
#	228938
#	247418
#	279919
#
# Disc length: 4005 seconds
#
# Revision: 1
# Processed by: cddbd v1.4PL0 Copyright (c) Steve Scherf et al.
# Submitted via: EasyCDDAExtractor 5.0.7
#
DISCID=a20fa30d
DTITLE=Snowy White - Pure Gold 1983-1998
DYEAR=1900
DGENRE=Blues
TTITLE0=Good Question
TTITLE1=Bird of Paradise
TTITLE2=Open Carefully
TTITLE3=At The Crossroads
TTITLE4=Snow Blues
TTITLE5=Rush Hour
TTITLE6=Someone Else Is Gonna Love Me
TTITLE7=Only Woman
TTITLE8=Birthday Blues
TTITLE9=Highway To The Sun
TTITLE10=Love, Pain and Sorrow
TTITLE11=All My Money
TTITLE12=In The Name of The Lord
EXTD=
EXTT0=
EXTT1=
EXTT2=
EXTT3=
EXTT4=
EXTT5=
EXTT6=
EXTT7=
EXTT8=
EXTT9=
EXTT10=
EXTT11=
EXTT12=
PLAYORDER=
